<?xml version="1.0" encoding="UTF-8" standalone="no"?>
<!-- Generator: Adobe Illustrator 19.2.0, SVG Export Plug-In . SVG Version: 6.00 Build 0)  -->
<!DOCTYPE svg  PUBLIC '-//W3C//DTD SVG 1.1//EN'  'http://www.w3.org/Graphics/SVG/1.1/DTD/svg11.dtd'>
<svg id="Layer_1" style="enable-background:new 0 0 2048 2048" xmlns="http://www.w3.org/2000/svg" xml:space="preserve" viewBox="0 0 2048 2048" version="1.1" y="0px" x="0px" xmlns:xlink="http://www.w3.org/1999/xlink">
<style type="text/css">
	.st0{opacity:0.1;enable-background:new    ;}
	.st1{fill:#FFFFFF;}
</style>
<g id="Layer_1_1_" xmlns:sketch="http://www.bohemiancoding.com/sketch/ns">
		<circle id="Oval-1" cy="1024" cx="1024" r="1009.2" class="st0"/>
		<g id="Oval-1_1_">
			<path class="st1" d="m1024 2048c-138.2 0-272.3-27.1-398.6-80.5-121.9-51.6-231.4-125.4-325.5-219.4-94-94-167.9-203.5-219.4-325.5-53.4-126.3-80.5-260.4-80.5-398.6s27.1-272.3 80.5-398.6c51.6-121.9 125.4-231.4 219.4-325.5s203.5-167.9 325.5-219.4c126.3-53.4 260.4-80.5 398.6-80.5s272.3 27.1 398.6 80.5c121.9 51.6 231.4 125.4 325.5 219.4 94 94 167.9 203.5 219.4 325.5 53.4 126.3 80.5 260.4 80.5 398.6s-27.1 272.3-80.5 398.6c-51.6 121.9-125.4 231.4-219.4 325.5-94 94-203.5 167.9-325.5 219.4-126.3 53.4-260.4 80.5-398.6 80.5zm0-2018.4c-134.3 0-264.5 26.3-387.1 78.1-118.4 50.1-224.8 121.8-316.1 213.1s-163 197.7-213.1 316.1c-51.8 122.6-78.1 252.8-78.1 387.1s26.3 264.5 78.1 387.1c50.1 118.4 121.8 224.8 213.1 316.1s197.7 163 316.1 213.1c122.6 51.9 252.8 78.1 387.1 78.1s264.5-26.3 387.1-78.1c118.4-50.1 224.8-121.8 316.1-213.1s163-197.7 213.1-316.1c51.9-122.6 78.1-252.8 78.1-387.1s-26.3-264.5-78.1-387.1c-50.1-118.4-121.8-224.8-213.1-316.1s-197.7-163-316.1-213.1c-122.6-51.8-252.8-78.1-387.1-78.1z"/>
		</g>
	<title>Oval 1 + Fill 103 + Oval 1</title>
	<desc>Created with Sketch.</desc>
	<path id="Fill-103" d="m862 611.8l578.5 374.1c26.4 17.2 26.4 59 0 76.2l-578.5 374.1c-27.7 17.6-62.3-3.8-62.3-38.1v-748.2c-0.1-34.3 34.6-55.7 62.3-38.1" class="st1"/>
</g>
</svg>
